<?xml version="1.0" standalone="no"?>
<!DOCTYPE svg PUBLIC "-//W3C//DTD SVG 20010904//EN"
 "http://www.w3.org/TR/2001/REC-SVG-20010904/DTD/svg10.dtd">
<svg version="1.0" xmlns="http://www.w3.org/2000/svg"
 width="667.000000pt" height="667.000000pt" viewBox="0 0 667.000000 667.000000"
 preserveAspectRatio="xMidYMid meet">
<metadata>
Created by potrace 1.14, written by Peter Selinger 2001-2017
</metadata>
<g transform="translate(0.000000,667.000000) scale(0.100000,-0.100000)"
fill="#000000" stroke="none">
<path d="M3129 6596 c-2 -2 -41 -6 -86 -10 -80 -6 -207 -22 -255 -32 -13 -2
-39 -7 -58 -10 -129 -20 -498 -127 -615 -179 -16 -7 -55 -24 -85 -36 -103 -45
-320 -158 -417 -220 -96 -60 -292 -199 -324 -229 -9 -8 -41 -35 -72 -60 -95
-77 -341 -330 -422 -434 -16 -21 -35 -44 -40 -50 -28 -31 -157 -218 -200 -288
-110 -183 -191 -345 -263 -528 -81 -206 -166 -529 -188 -715 -2 -21 -6 -51 -9
-65 -27 -143 -27 -650 -1 -810 3 -14 9 -56 15 -95 20 -133 52 -284 78 -370
136 -453 292 -766 557 -1115 106 -139 117 -151 286 -320 171 -171 189 -187
328 -293 358 -270 746 -458 1173 -567 99 -26 267 -59 333 -66 28 -3 56 -7 63
-9 57 -18 535 -27 701 -12 446 38 928 189 1308 407 48 28 88 50 90 50 13 0
294 199 373 265 137 113 335 308 426 418 22 27 45 54 51 60 5 7 45 59 87 117
42 58 80 110 85 115 22 29 132 214 132 223 0 6 4 12 8 14 13 5 134 257 180
373 55 140 102 284 137 425 15 59 55 264 60 305 3 28 8 61 10 75 27 162 27
636 0 815 -3 17 -7 48 -10 69 -3 21 -7 48 -10 60 -2 12 -7 38 -10 60 -3 21 -7
41 -9 45 -2 3 -7 24 -10 46 -14 89 -104 392 -145 490 -103 243 -178 392 -278
552 -60 95 -204 298 -222 313 -3 3 -38 43 -78 90 -74 89 -273 287 -356 355
-27 22 -54 45 -60 50 -30 27 -200 152 -246 180 -9 6 -42 27 -74 48 -31 20 -60
37 -64 37 -3 0 -14 6 -22 14 -32 28 -310 164 -436 213 -134 53 -275 100 -381
127 -102 26 -297 66 -302 62 -2 -3 -14 -1 -27 4 -12 5 -58 12 -101 15 -44 4
-88 9 -99 12 -23 6 -500 15 -506 9z"/>
</g>
</svg>
