<?xml version="1.0" standalone="no"?>
<!DOCTYPE svg PUBLIC "-//W3C//DTD SVG 20010904//EN"
 "http://www.w3.org/TR/2001/REC-SVG-20010904/DTD/svg10.dtd">
<svg version="1.0" xmlns="http://www.w3.org/2000/svg"
 width="1024.000000pt" height="1024.000000pt" viewBox="0 0 1024.000000 1024.000000"
 preserveAspectRatio="xMidYMid meet">
<metadata>
Created by potrace 1.14, written by Peter Selinger 2001-2017
</metadata>
<g transform="translate(0.000000,1024.000000) scale(0.100000,-0.100000)"
fill="#000000" stroke="none">
<path d="M0 5120 l0 -5120 5120 0 5120 0 0 5120 0 5120 -5120 0 -5120 0 0
-5120z m5236 2949 c145 -26 267 -122 333 -259 31 -66 36 -86 39 -171 3 -70 0
-112 -13 -154 -33 -116 -133 -232 -235 -274 -46 -19 -61 -32 -89 -76 -39 -61
-94 -125 -107 -125 -13 0 -62 52 -113 122 -29 39 -54 61 -77 68 -56 19 -152
96 -188 153 -73 115 -97 228 -72 345 39 186 177 327 359 367 79 17 90 17 163
4z m-724 -496 c24 -21 23 -75 0 -96 -10 -10 -43 -24 -73 -33 -83 -25 -282
-106 -397 -163 -88 -43 -107 -48 -127 -39 -33 15 -51 61 -36 94 14 31 190 118
401 198 153 58 202 67 232 39z m1502 -32 c163 -59 379 -158 412 -188 33 -30
32 -75 -2 -102 -15 -12 -32 -21 -38 -21 -7 0 -50 18 -97 41 -129 62 -274 123
-382 159 -101 34 -117 47 -117 96 0 36 26 64 61 64 16 0 89 -22 163 -49z
m-2522 -262 c131 -28 241 -117 306 -248 36 -72 37 -79 37 -180 0 -92 -4 -114
-26 -167 -48 -114 -147 -216 -249 -256 -74 -28 -205 -35 -283 -15 -216 57
-364 280 -329 494 43 261 286 427 544 372z m3561 -4 c135 -35 231 -115 295
-244 36 -74 37 -77 37 -191 0 -114 -1 -117 -38 -192 -78 -158 -226 -248 -407
-248 -122 0 -207 34 -299 116 -110 100 -165 253 -141 393 45 267 296 433 553
366z m-2511 -182 c37 -33 10 -93 -42 -93 -30 0 -44 13 -52 47 -13 51 53 83 94
46z m1320 0 c35 -32 13 -93 -34 -93 -46 0 -77 67 -46 98 17 17 58 15 80 -5z
m-1530 -70 c35 -32 8 -93 -41 -93 -34 0 -53 20 -53 55 0 51 55 74 94 38z
m1740 0 c40 -36 6 -112 -45 -99 -21 5 -47 42 -47 66 0 16 39 50 57 50 9 0 25
-7 35 -17z m-1010 -149 c64 -33 126 -31 206 5 l63 28 117 -18 c403 -62 824
-287 1081 -578 203 -231 313 -426 417 -739 48 -145 65 -257 71 -469 7 -213 -6
-355 -47 -523 -161 -656 -657 -1183 -1285 -1364 -168 -48 -286 -67 -462 -73
-322 -12 -588 46 -888 193 -192 94 -309 178 -466 334 -229 228 -378 477 -483
805 -99 310 -113 658 -40 995 39 179 160 456 269 619 76 113 212 268 315 359
99 87 275 210 370 257 166 84 369 150 565 184 119 21 127 20 197 -15z m-2017
-539 c31 -30 31 -49 0 -105 -14 -25 -50 -93 -80 -151 -29 -59 -61 -109 -70
-113 -37 -14 -74 -6 -91 19 -15 22 -15 32 -4 68 19 66 109 235 145 273 38 40
67 43 100 9z m4327 6 c24 -20 127 -206 152 -278 18 -51 1 -97 -38 -107 -42
-10 -63 9 -111 104 -25 49 -60 113 -79 142 -45 72 -50 92 -31 122 26 39 70 46
107 17z m-4047 -346 c31 -30 31 -42 3 -72 -27 -29 -62 -29 -82 -1 -22 32 -20
64 6 82 31 22 45 20 73 -9z m3750 0 c14 -13 25 -31 25 -40 0 -18 -43 -65 -60
-65 -18 0 -60 48 -60 69 0 19 43 61 62 61 5 0 20 -11 33 -25z m-4240 -151 c34
-22 50 -77 35 -115 -17 -41 -47 -59 -96 -59 -55 0 -84 33 -84 97 0 79 78 121
145 77z m4770 0 c50 -32 54 -118 7 -154 -27 -22 -82 -26 -114 -9 -27 15 -51
74 -43 110 13 60 95 89 150 53z m-4370 -70 c47 -31 22 -104 -36 -104 -22 0
-32 7 -44 30 -16 31 -14 41 13 73 19 21 36 22 67 1z m3923 -30 c28 -19 29 -57
2 -84 -24 -24 -38 -25 -68 -4 -26 18 -29 60 -5 86 20 22 42 23 71 2z m-4262
-304 c110 -37 211 -136 256 -250 32 -82 36 -207 9 -288 -87 -256 -329 -361
-619 -267 -46 14 -96 26 -110 25 -15 -1 -30 -2 -33 -1 -4 1 -3 21 2 45 7 40 4
51 -30 118 -72 140 -76 272 -12 403 56 112 133 182 240 216 80 26 219 25 297
-1z m4825 4 c76 -23 128 -56 188 -119 222 -235 113 -630 -196 -712 -77 -20
-208 -13 -286 17 -233 88 -335 378 -216 612 28 54 123 148 174 173 98 46 236
58 336 29z m-4912 -1051 c15 -13 30 -52 50 -128 41 -155 83 -264 157 -411 35
-70 64 -137 64 -150 0 -27 -43 -64 -75 -64 -31 0 -57 32 -113 146 -95 189
-176 422 -189 540 -5 46 -3 53 18 68 30 21 61 20 88 -1z m4798 -5 c28 -26 29
-48 3 -147 -34 -133 -89 -280 -158 -424 -67 -141 -96 -177 -138 -177 -30 0
-64 37 -64 69 0 15 31 88 70 164 62 123 151 365 175 474 12 60 70 81 112 41z
m-4363 -64 c25 -24 20 -69 -9 -88 -32 -21 -41 -20 -65 4 -22 22 -27 69 -8 88
17 17 64 15 82 -4z m3915 -20 c42 -53 -20 -115 -74 -72 -29 22 -32 53 -8 80
23 26 58 22 82 -8z m-87 -211 c25 -23 23 -68 -4 -87 -30 -21 -44 -20 -68 4
-53 53 16 134 72 83z m-3744 -13 c29 -27 28 -51 -3 -80 -21 -20 -28 -22 -50
-12 -38 18 -52 55 -31 87 20 31 54 33 84 5z m204 -581 c114 -38 207 -123 260
-235 52 -111 50 -269 -4 -379 -80 -161 -227 -255 -399 -255 -239 0 -416 163
-444 410 -13 111 33 250 114 341 46 52 134 108 199 125 76 20 203 17 274 -7z
m3610 -21 c92 -46 167 -122 211 -215 30 -65 32 -74 32 -183 -1 -138 -19 -194
-92 -285 -113 -139 -284 -195 -458 -150 -159 42 -276 163 -320 332 -59 227 77
464 304 529 28 8 86 12 147 11 94 -2 106 -5 176 -39z m-2812 -376 c43 -35 19
-101 -37 -102 -24 0 -53 34 -53 62 0 21 34 58 54 58 8 0 24 -8 36 -18z m1740
-2 c37 -37 14 -100 -36 -100 -25 0 -54 34 -54 62 0 22 34 58 55 58 8 0 24 -9
35 -20z m-1521 -81 c28 -26 24 -56 -11 -82 -25 -19 -28 -19 -52 -4 -33 22 -41
52 -22 82 20 31 55 32 85 4z m1317 4 c30 -40 3 -93 -47 -93 -43 0 -68 67 -37
98 18 18 69 15 84 -5z m-602 -143 c114 -18 237 -101 292 -197 59 -99 79 -233
53 -355 -49 -233 -266 -375 -518 -339 -167 23 -280 104 -349 248 -37 77 -37
79 -37 203 0 119 2 128 31 190 94 199 286 290 528 250z m-1213 -131 c117 -58
287 -129 374 -155 98 -29 129 -75 89 -133 -15 -20 -23 -23 -63 -19 -25 3 -91
22 -146 43 -115 43 -381 168 -407 192 -37 33 -8 123 39 123 7 0 59 -23 114
-51z m2374 26 c27 -26 31 -54 14 -87 -23 -43 -500 -248 -577 -248 -40 0 -72
30 -72 68 0 44 19 59 108 87 94 29 326 127 416 174 70 37 80 38 111 6z"/>
<path d="M3470 6959 c-79 -55 -148 -105 -152 -112 -23 -37 7 -87 53 -87 14 0
83 42 172 105 138 99 147 108 147 138 0 18 -5 38 -12 45 -26 26 -65 9 -208
-89z"/>
<path d="M3567 6795 c-66 -46 -127 -91 -136 -99 -10 -9 -26 -16 -37 -16 -10 0
-77 36 -148 80 -72 44 -138 80 -147 80 -26 0 -49 -28 -49 -60 0 -21 9 -36 33
-53 63 -47 274 -167 303 -173 25 -5 48 8 156 83 174 120 218 159 218 188 0 30
-25 55 -53 55 -12 -1 -75 -39 -140 -85z"/>
<path d="M6713 6768 c-6 -7 -13 -21 -16 -31 -6 -15 -4 -16 13 -7 11 6 20 13
20 16 0 3 -4 2 -10 -1 -14 -9 -13 8 2 23 7 7 9 12 6 12 -3 0 -10 -6 -15 -12z"/>
<path d="M6744 6741 c0 -13 6 -17 19 -13 10 2 16 5 15 6 -2 1 -10 7 -18 13
-13 10 -16 8 -16 -6z"/>
<path d="M6686 6695 c-9 -26 -7 -32 5 -12 6 10 9 21 6 23 -2 3 -7 -2 -11 -11z"/>
<path d="M6735 6650 c-3 -5 3 -10 15 -10 12 0 18 5 15 10 -3 6 -10 10 -15 10
-5 0 -12 -4 -15 -10z"/>
<path d="M6833 6643 c9 -2 25 -2 35 0 9 3 1 5 -18 5 -19 0 -27 -2 -17 -5z"/>
<path d="M6738 6623 c12 -2 32 -2 45 0 12 2 2 4 -23 4 -25 0 -35 -2 -22 -4z"/>
<path d="M6888 6623 c6 -2 18 -2 25 0 6 3 1 5 -13 5 -14 0 -19 -2 -12 -5z"/>
<path d="M4985 6749 c-273 -28 -560 -130 -780 -278 -161 -108 -358 -310 -483
-496 -98 -146 -202 -390 -236 -555 -54 -263 -54 -505 0 -745 81 -356 242 -654
484 -894 152 -150 283 -242 476 -332 195 -90 362 -133 592 -151 460 -35 914
121 1264 435 134 121 294 332 382 504 176 349 235 803 151 1183 -79 361 -315
734 -611 966 -166 130 -392 248 -581 303 -192 57 -458 81 -658 60z m362 -184
c263 -34 475 -118 690 -272 117 -83 184 -143 269 -241 199 -228 317 -482 365
-785 14 -93 7 -420 -10 -440 -6 -8 -12 -39 -13 -70 -1 -30 -6 -53 -11 -50 -4
2 -5 -6 -2 -20 4 -14 2 -28 -4 -32 -6 -3 -9 -10 -6 -15 3 -5 -1 -25 -9 -45 -8
-19 -15 -39 -16 -43 -3 -28 -24 -80 -31 -76 -5 3 -6 -2 -3 -11 4 -8 -1 -26
-10 -40 -9 -14 -14 -25 -11 -25 6 0 -27 -62 -89 -168 -29 -48 -41 -61 -50 -53
-7 6 -15 9 -18 6 -3 -3 -16 5 -30 17 -31 30 -347 186 -463 231 -49 19 -155 56
-234 82 l-144 48 51 48 c78 77 124 143 196 284 53 103 68 143 72 190 7 73 -7
133 -43 175 l-26 32 2 241 c2 253 -6 341 -39 430 -30 79 -35 85 -57 65 -62
-57 -151 -69 -308 -43 -277 45 -488 -8 -640 -161 -116 -117 -165 -244 -167
-427 -1 -92 -4 -105 -26 -135 -58 -76 -57 -233 1 -321 15 -22 38 -66 51 -96
34 -75 78 -138 153 -216 l64 -67 -158 -52 c-272 -90 -512 -197 -667 -297 -54
-35 -71 -42 -78 -31 -93 148 -153 287 -198 461 -124 475 -50 920 213 1292 87
122 246 283 349 352 42 28 92 63 111 77 45 34 182 97 292 134 228 76 447 97
682 67z m17 -762 c91 -14 167 -14 224 3 21 6 22 3 22 -39 0 -98 -52 -183 -153
-251 l-39 -25 84 -3 83 -3 2 -125 c2 -107 5 -133 26 -183 20 -47 23 -66 16
-100 -13 -74 -48 -153 -99 -225 -83 -118 -180 -182 -307 -203 -211 -35 -421
112 -510 358 -29 82 -29 119 3 190 21 50 24 67 19 119 -15 133 33 289 114 377
49 53 136 101 211 116 30 6 64 13 75 15 27 6 110 -2 229 -21z m311 -1500 c189
-60 334 -125 517 -231 58 -34 98 -63 98 -73 0 -16 -124 -140 -199 -199 -179
-140 -401 -240 -641 -291 -139 -29 -407 -32 -550 -5 -295 54 -589 207 -805
419 l-80 79 25 20 c56 45 220 135 347 190 132 57 384 138 427 138 17 0 32 -22
73 -103 63 -123 193 -344 242 -409 l35 -47 41 62 c79 119 197 320 242 412 l45
93 36 -10 c21 -5 87 -25 147 -45z"/>
<path d="M6550 4611 c0 -6 4 -13 10 -16 6 -3 7 1 4 9 -7 18 -14 21 -14 7z"/>
<path d="M3810 4590 c0 -5 5 -10 11 -10 5 0 7 5 4 10 -3 6 -8 10 -11 10 -2 0
-4 -4 -4 -10z"/>
<path d="M3960 4420 c0 -5 5 -10 10 -10 6 0 10 5 10 10 0 6 -4 10 -10 10 -5 0
-10 -4 -10 -10z"/>
<path d="M6280 4266 c0 -2 7 -7 16 -10 8 -3 12 -2 9 4 -6 10 -25 14 -25 6z"/>
<path d="M6400 4230 c-12 -7 -10 -9 7 -7 12 0 19 5 17 9 -6 10 -6 10 -24 -2z"/>
<path d="M3379 3252 c-132 -3 -144 -12 -144 -104 0 -53 4 -63 27 -83 25 -21
33 -22 140 -18 106 5 114 6 137 31 20 23 23 33 18 80 -6 55 -25 87 -55 94 -9
1 -65 2 -123 0z"/>
<path d="M3559 3026 l-12 -26 -151 0 c-143 0 -152 1 -164 21 -11 18 -20 21
-54 16 -50 -7 -85 -39 -99 -90 -13 -48 -4 -103 17 -111 9 -3 145 -6 304 -6
334 0 327 -2 316 83 -9 77 -45 119 -114 133 -27 6 -33 3 -43 -20z"/>
<path d="M6888 3322 c-3 -10 -26 -31 -52 -46 -38 -22 -50 -25 -62 -15 -21 17
-59 -22 -78 -80 -15 -46 -15 -145 -1 -208 6 -28 3 -35 -29 -63 -20 -18 -36
-41 -36 -52 0 -21 60 -88 78 -88 6 0 25 16 43 35 19 19 42 35 53 35 22 0 86
-38 86 -51 0 -5 22 -9 48 -9 40 0 60 7 109 39 44 28 67 37 87 34 24 -5 29 0
57 61 26 55 29 69 19 82 -10 11 -11 26 -1 67 9 43 9 61 -4 104 -8 28 -23 61
-33 73 -16 20 -21 21 -41 10 -19 -10 -26 -9 -44 8 -12 10 -30 22 -39 25 -10 3
-20 18 -24 32 -6 23 -10 25 -69 25 -52 0 -63 -3 -67 -18z m158 -166 c40 -39
44 -48 44 -92 0 -159 -194 -212 -268 -73 -53 100 15 209 132 209 44 0 53 -4
92 -44z"/>
<path d="M5229 2395 c-48 -46 -69 -50 -113 -20 -44 30 -42 30 -42 5 0 -15 5
-19 21 -14 17 4 16 2 -5 -15 l-25 -20 25 3 c14 1 31 6 38 10 7 4 17 4 23 0 8
-4 7 -9 -2 -15 -11 -6 -9 -9 7 -9 28 0 36 -10 22 -27 -8 -11 -7 -12 6 -7 19 7
20 16 4 32 -9 9 -8 12 6 12 9 0 14 4 11 10 -3 6 1 7 9 4 9 -3 13 -10 10 -15
-3 -5 2 -9 10 -9 11 0 18 -13 22 -40 4 -22 12 -40 18 -41 6 0 2 -4 -9 -9 l-20
-9 20 0 c31 -1 51 20 62 65 9 38 8 44 -17 72 -15 17 -30 29 -33 26 -3 -3 -3 3
0 14 8 34 -12 33 -48 -3z"/>
<path d="M5013 2314 c-4 -10 0 -20 10 -26 25 -14 32 -10 32 17 1 29 -32 36
-42 9z"/>
</g>
</svg>
